<svg width="29" height="21" viewBox="0 0 29 21" fill="none" xmlns="http://www.w3.org/2000/svg">
<path d="M20.3114 15.4778C20.653 15.2513 20.7462 14.7909 20.5197 14.4493C20.2932 14.1078 19.8329 14.0146 19.4913 14.2411L20.3114 15.4778ZM12.4557 19.7973L12.8288 20.4386L12.8475 20.4276L12.8657 20.4157L12.4557 19.7973ZM10.6421 20.1662L10.4524 20.8834L10.4829 20.8915L10.514 20.8968L10.6421 20.1662ZM13.904 13.7048C14.2134 13.4362 14.2466 12.9677 13.9779 12.6582C13.7093 12.3488 13.2407 12.3157 12.9313 12.5843L13.904 13.7048ZM26.7629 15.6446L27.2519 17.9952L28.7047 17.693L28.2157 15.3422L26.7629 15.6446ZM5.09738 12.2034L1.7835 9.74091L0.898421 10.932L4.21229 13.3945L5.09738 12.2034ZM1.50878 8.95559L2.01071 7.05779L0.576137 6.67837L0.074202 8.57617L1.50878 8.95559ZM2.01071 7.05779L3.33869 2.03675L1.90412 1.65733L0.576137 6.67837L2.01071 7.05779ZM4.24569 1.50917L5.61739 1.87196L5.99681 0.437386L4.62511 0.0745958L4.24569 1.50917ZM6.16271 2.48813L6.87923 7.69707L8.34931 7.49479L7.63278 2.28592L6.16271 2.48813ZM8.51519 9.54557L25.1528 13.9459L25.5322 12.5114L8.89461 8.111L8.51519 9.54557ZM19.4913 14.2411L12.0456 19.179L12.8657 20.4157L20.3114 15.4778L19.4913 14.2411ZM10.8318 19.4489L9.40498 19.0715L9.02556 20.5061L10.4524 20.8834L10.8318 19.4489ZM8.99549 17.966L13.904 13.7048L12.9313 12.5843L8.02271 16.8454L8.99549 17.966ZM9.40498 19.0715C8.95067 18.9513 8.72761 18.4481 8.92258 18.0389L7.58297 17.4007C6.9952 18.6342 7.65672 20.144 9.02556 20.5061L9.40498 19.0715ZM12.0826 19.1559C11.5795 19.4485 11.4783 19.4963 11.4008 19.512C11.3429 19.5237 11.2768 19.5241 10.77 19.4353L10.514 20.8968C10.9139 20.967 11.3012 21.0465 11.6966 20.9662C12.0725 20.8897 12.4248 20.6736 12.8288 20.4386L12.0826 19.1559ZM26.3358 18.8636L16.4631 16.2524L16.0837 17.687L25.9564 20.2982L26.3358 18.8636ZM10.8969 14.7803L9.90111 14.5169L9.52169 15.9515L10.5175 16.2148L10.8969 14.7803ZM20.6346 11.5321L17.2565 2.82865L15.8731 3.36555L19.2512 12.069L20.6346 11.5321ZM15.7506 1.48218L14.594 1.17627L14.2146 2.61085L15.3712 2.91676L15.7506 1.48218ZM11.8632 3.85892L13.4841 10.4598L14.9251 10.106L13.3043 3.50505L11.8632 3.85892ZM14.594 1.17627C12.9606 0.744267 11.4603 2.2181 11.8632 3.85892L13.3043 3.50505C13.17 2.95813 13.6701 2.46685 14.2146 2.61085L14.594 1.17627ZM17.2565 2.82865C16.9988 2.16476 16.4391 1.66427 15.7506 1.48218L15.3712 2.91676C15.6006 2.97743 15.7873 3.1443 15.8731 3.36555L17.2565 2.82865ZM6.87923 7.69707C7.00164 8.58686 7.64686 9.31592 8.51519 9.54557L8.89461 8.111C8.60517 8.03445 8.39012 7.79138 8.34931 7.49479L6.87923 7.69707ZM5.61739 1.87196C5.90684 1.94852 6.12191 2.19152 6.16271 2.48813L7.63278 2.28592C7.51037 1.3961 6.86516 0.66705 5.99681 0.437386L5.61739 1.87196ZM1.7835 9.74091C1.53997 9.56001 1.43119 9.24896 1.50878 8.95559L0.074202 8.57617C-0.158534 9.45614 0.167876 10.3891 0.898421 10.932L1.7835 9.74091ZM4.21229 13.3945C5.80333 14.5768 7.60535 15.4446 9.52169 15.9515L9.90111 14.5169C8.16728 14.0583 6.53687 13.2732 5.09738 12.2034L4.21229 13.3945ZM8.02271 16.8454C7.88611 16.964 7.70502 17.1445 7.58297 17.4007L8.92258 18.0389C8.9194 18.0456 8.91972 18.0423 8.9312 18.0288C8.94317 18.0146 8.96297 17.9942 8.99549 17.966L8.02271 16.8454ZM27.2519 17.9952C27.3642 18.5351 26.8691 19.0046 26.3358 18.8636L25.9564 20.2982C27.5559 20.7212 29.0417 19.3129 28.7047 17.693L27.2519 17.9952ZM3.33869 2.03675C3.44347 1.64059 3.84955 1.4044 4.24569 1.50917L4.62511 0.0745958C3.43666 -0.239727 2.21844 0.468883 1.90412 1.65733L3.33869 2.03675ZM28.2157 15.3422C27.9295 13.9666 26.8908 12.8707 25.5322 12.5114L25.1528 13.9459C25.9679 14.1615 26.5912 14.8191 26.7629 15.6446L28.2157 15.3422Z" fill="#009CFC"/>
</svg>
