<svg width="56" height="56" viewBox="0 0 56 56" fill="none" xmlns="http://www.w3.org/2000/svg">
<g clip-path="url(#clip0_1_1231)">
<path d="M36.1278 29.7292C36.382 29.2578 36.2059 28.6698 35.7345 28.4156C35.2632 28.1614 34.6751 28.3375 34.4209 28.8089L36.1278 29.7292ZM29.7335 39.5459L30.5585 40.0553L30.5733 40.031L30.5869 40.0061L29.7335 39.5459ZM27.8703 41.088L28.0934 42.0315L28.1336 42.022L28.1727 42.009L27.8703 41.088ZM27.6508 31.6318C27.842 31.1316 27.5917 30.5711 27.0914 30.3799C26.5912 30.1887 26.0308 30.4392 25.8395 30.9393L27.6508 31.6318ZM43.6666 25.9482L45.6778 28.3565L47.1662 27.1135L45.1549 24.7051L43.6666 25.9482ZM16.5756 35.3248L11.2395 34.5274L10.9529 36.4453L16.289 37.2428L16.5756 35.3248ZM10.4392 33.7914L9.84895 31.2949L7.96179 31.7411L8.55203 34.2376L10.4392 33.7914ZM9.84895 31.2949L8.28735 24.6898L6.40019 25.136L7.96179 31.7411L9.84895 31.2949ZM9.00784 23.5232L10.8123 23.0966L10.3661 21.2094L8.56167 21.636L9.00784 23.5232ZM11.8203 23.4709L15.8541 29.0335L17.4239 27.895L13.3902 22.3325L11.8203 23.4709ZM18.8781 30.1565L40.7646 24.982L40.3184 23.0949L18.432 28.2694L18.8781 30.1565ZM34.4209 28.8089L28.88 39.0857L30.5869 40.0061L36.1278 29.7292L34.4209 28.8089ZM27.6472 40.1444L25.7703 40.5881L26.2165 42.4753L28.0934 42.0315L27.6472 40.1444ZM24.6174 39.5661L27.6508 31.6318L25.8395 30.9393L22.8061 38.8736L24.6174 39.5661ZM25.7703 40.5881C25.1726 40.7294 24.6056 40.2868 24.5783 39.6951L22.6412 39.7844C22.7234 41.5681 24.4158 42.901 26.2165 42.4753L25.7703 40.5881ZM28.9084 39.0364C28.5088 39.6834 28.4216 39.8009 28.342 39.8667C28.2824 39.9159 28.2065 39.957 27.5676 40.1668L28.1727 42.009C28.6768 41.8436 29.1721 41.6968 29.5785 41.3606C29.9646 41.041 30.2376 40.5749 30.5585 40.0553L28.9084 39.0364ZM45.1567 29.9216L32.1693 32.9921L32.6155 34.8793L45.6029 31.8087L45.1567 29.9216ZM24.8471 34.7233L23.5371 35.033L23.9833 36.9201L25.2932 36.6104L24.8471 34.7233ZM34.0704 24.9824L24.8168 17.0312L23.5529 18.502L32.8065 26.4532L34.0704 24.9824ZM22.2518 16.4067L20.7303 16.7664L21.1765 18.6536L22.698 18.2938L22.2518 16.4067ZM19.2349 21.5402L25.1683 28.1501L26.6113 26.8549L20.678 20.2448L19.2349 21.5402ZM20.7303 16.7664C18.5816 17.2744 17.76 19.8971 19.2349 21.5402L20.678 20.2448C20.1864 19.6971 20.4602 18.8229 21.1765 18.6536L20.7303 16.7664ZM24.8168 17.0312C24.1108 16.4247 23.1575 16.1926 22.2518 16.4067L22.698 18.2938C22.9998 18.2225 23.3177 18.2998 23.5529 18.502L24.8168 17.0312ZM15.8541 29.0335C16.5432 29.9836 17.7358 30.4266 18.8781 30.1565L18.432 28.2694C18.0512 28.3594 17.6536 28.2117 17.4239 27.895L15.8541 29.0335ZM10.8123 23.0966C11.1931 23.0065 11.5906 23.1542 11.8203 23.4709L13.3902 22.3325C12.7011 21.3823 11.5084 20.9393 10.3661 21.2094L10.8123 23.0966ZM11.2395 34.5274C10.8474 34.4689 10.5304 34.1774 10.4392 33.7914L8.55203 34.2376C8.82571 35.3952 9.77652 36.2695 10.9529 36.4453L11.2395 34.5274ZM16.289 37.2428C18.8509 37.6256 21.4624 37.5161 23.9833 36.9201L23.5371 35.033C21.2563 35.5722 18.8936 35.6713 16.5756 35.3248L16.289 37.2428ZM22.8061 38.8736C22.7217 39.0945 22.6242 39.414 22.6412 39.7844L24.5783 39.6951C24.5788 39.7047 24.5771 39.7007 24.582 39.6781C24.5871 39.6543 24.5974 39.6186 24.6174 39.5661L22.8061 38.8736ZM45.6778 28.3565C46.1398 28.9096 45.8582 29.7557 45.1567 29.9216L45.6029 31.8087C47.7071 31.3112 48.5522 28.7731 47.1662 27.1135L45.6778 28.3565ZM8.28735 24.6898C8.16414 24.1687 8.48672 23.6464 9.00784 23.5232L8.56167 21.636C6.99829 22.0056 6.03057 23.5726 6.40019 25.136L8.28735 24.6898ZM45.1549 24.7051C43.9778 23.2958 42.1056 22.6724 40.3184 23.0949L40.7646 24.982C41.8369 24.7285 42.9603 25.1026 43.6666 25.9482L45.1549 24.7051Z" fill="white"/>
</g>
<line x1="6.6982" y1="47.6467" x2="45.9382" y2="47.6467" stroke="white"/>
<defs>
<clipPath id="clip0_1_1231">
<rect width="46.2557" height="46.2557" fill="white" transform="translate(0 10.7081) scale(1.00615) rotate(-13.3018)"/>
</clipPath>
</defs>
</svg>
