<svg width="38" height="38" viewBox="0 0 38 38" fill="none" xmlns="http://www.w3.org/2000/svg">
<path d="M0 0H38V38H0V0Z" fill="#3A469D"/>
<path d="M32.8646 36.5681C31.1447 36.5562 29.7234 35.0871 29.6757 33.2598C29.6398 31.3847 31.1328 29.8201 32.9123 29.8201C34.6442 29.832 36.0893 31.2891 36.1251 33.1165C36.1729 35.0035 34.668 36.592 32.8646 36.5681ZM32.984 30.9547C31.8255 30.9069 30.882 31.958 30.882 33.1881C30.882 34.3825 31.7538 35.3977 32.8765 35.4096C34.047 35.4216 34.9666 34.3466 34.9547 33.1284C34.9308 31.9699 34.0948 30.9786 32.984 30.9547ZM24.1458 36.6876C21.6735 36.5801 19.6909 34.5019 19.6431 31.9102C19.6073 29.2109 21.6138 26.9656 24.2892 26.9656C25.1252 26.9656 26.4868 27.0133 28.0514 28.6615L27.1675 29.5931C25.8179 28.2794 24.8147 28.1838 24.2892 28.2077C21.9005 28.2794 20.8972 30.3814 20.945 31.8743C20.9928 34.1556 22.8201 35.4216 24.2294 35.4693C25.9135 35.5171 27.5378 34.1555 27.5617 32.4357H24.3728V31.1816H28.9232C29.1382 34.8722 26.6301 36.8189 24.1458 36.6876ZM1.9668 36.4487V27.0014H3.3403V36.4487H1.9668ZM13.2773 36.5681C11.2588 36.4845 10.2078 34.896 10.16 33.2478C10.0525 31.4086 11.4857 29.8081 13.337 29.8201C13.7789 29.8201 14.2089 29.9634 14.4597 30.0709L14.9374 30.3098V31.6832L14.7344 31.4563C14.5791 31.2891 13.8506 30.9428 13.2534 30.9547C12.1426 30.9666 11.3663 31.9221 11.3424 33.0448C11.2827 34.3466 12.071 35.3499 13.3131 35.4216C13.4086 35.4216 15.2957 35.3499 15.2957 33.1523V27.0014H16.5378V33.1881C16.5378 34.896 15.236 36.6637 13.2773 36.5681ZM8.17741 36.4487V33.0209C8.17741 31.1219 7.24581 31.0861 6.75613 31.0383C6.11118 30.9308 5.23931 31.6116 5.23931 32.7104V36.4606H4.04496V32.782C4.04496 30.8591 5.43041 29.8559 6.79196 29.844C7.44885 29.844 9.41953 30.4053 9.41953 32.7223V36.4487H8.17741ZM17.3381 28.4466C17.3978 27.4433 18.8071 27.4911 18.7832 28.4585C18.7474 29.4976 17.2783 29.3662 17.3381 28.4466ZM17.4933 36.4487V29.9037H18.7474V36.4487H17.4933Z" fill="white" stroke="white" stroke-width="1.68776" stroke-miterlimit="10"/>
<path d="M25.3402 16.3239C25.637 16.3239 25.8776 16.0833 25.8776 15.7865C25.8776 15.4897 25.637 15.249 25.3402 15.249C25.0434 15.249 24.8027 15.4897 24.8027 15.7865C24.8027 16.0833 25.0434 16.3239 25.3402 16.3239Z" fill="white"/>
<path d="M25.3402 14.8906C25.637 14.8906 25.8776 14.65 25.8776 14.3531C25.8776 14.0563 25.637 13.8157 25.3402 13.8157C25.0434 13.8157 24.8027 14.0563 24.8027 14.3531C24.8027 14.65 25.0434 14.8906 25.3402 14.8906Z" fill="white"/>
<path d="M22.4735 13.4577C22.7703 13.4577 23.0109 13.2171 23.0109 12.9203C23.0109 12.6234 22.7703 12.3828 22.4735 12.3828C22.1767 12.3828 21.936 12.6234 21.936 12.9203C21.936 13.2171 22.1767 13.4577 22.4735 13.4577Z" fill="white"/>
<path d="M23.9071 13.4577C24.2039 13.4577 24.4445 13.2171 24.4445 12.9203C24.4445 12.6234 24.2039 12.3828 23.9071 12.3828C23.6103 12.3828 23.3696 12.6234 23.3696 12.9203C23.3696 13.2171 23.6103 13.4577 23.9071 13.4577Z" fill="white"/>
<path d="M25.1014 7.96358C25.3983 7.96358 25.6389 7.72296 25.6389 7.42613C25.6389 7.1293 25.3983 6.88867 25.1014 6.88867C24.8046 6.88867 24.564 7.1293 24.564 7.42613C24.564 7.72296 24.8046 7.96358 25.1014 7.96358Z" fill="white"/>
<path d="M26.5345 7.96358C26.8314 7.96358 27.072 7.72296 27.072 7.42613C27.072 7.1293 26.8314 6.88867 26.5345 6.88867C26.2377 6.88867 25.9971 7.1293 25.9971 7.42613C25.9971 7.72296 26.2377 7.96358 26.5345 7.96358Z" fill="white"/>
<path d="M27.9681 7.96358C28.2649 7.96358 28.5056 7.72296 28.5056 7.42613C28.5056 7.1293 28.2649 6.88867 27.9681 6.88867C27.6713 6.88867 27.4307 7.1293 27.4307 7.42613C27.4307 7.72296 27.6713 7.96358 27.9681 7.96358Z" fill="white"/>
<path d="M29.4007 7.96358C29.6976 7.96358 29.9382 7.72296 29.9382 7.42613C29.9382 7.1293 29.6976 6.88867 29.4007 6.88867C29.1039 6.88867 28.8633 7.1293 28.8633 7.42613C28.8633 7.72296 29.1039 7.96358 29.4007 7.96358Z" fill="white"/>
<path d="M30.8343 13.6963C31.1312 13.6963 31.3718 13.4556 31.3718 13.1588C31.3718 12.862 31.1312 12.6213 30.8343 12.6213C30.5375 12.6213 30.2969 12.862 30.2969 13.1588C30.2969 13.4556 30.5375 13.6963 30.8343 13.6963Z" fill="white"/>
<path d="M30.8343 12.2273C31.1312 12.2273 31.3718 11.9866 31.3718 11.6898C31.3718 11.393 31.1312 11.1523 30.8343 11.1523C30.5375 11.1523 30.2969 11.393 30.2969 11.6898C30.2969 11.9866 30.5375 12.2273 30.8343 12.2273Z" fill="white"/>
<path d="M30.8343 10.7942C31.1312 10.7942 31.3718 10.5535 31.3718 10.2567C31.3718 9.95987 31.1312 9.71924 30.8343 9.71924C30.5375 9.71924 30.2969 9.95987 30.2969 10.2567C30.2969 10.5535 30.5375 10.7942 30.8343 10.7942Z" fill="white"/>
<path d="M30.8343 9.36105C31.1312 9.36105 31.3718 9.12042 31.3718 8.82359C31.3718 8.52676 31.1312 8.28613 30.8343 8.28613C30.5375 8.28613 30.2969 8.52676 30.2969 8.82359C30.2969 9.12042 30.5375 9.36105 30.8343 9.36105Z" fill="white"/>
<path d="M25.3402 13.4577C25.637 13.4577 25.8776 13.2171 25.8776 12.9203C25.8776 12.6234 25.637 12.3828 25.3402 12.3828C25.0434 12.3828 24.8027 12.6234 24.8027 12.9203C24.8027 13.2171 25.0434 13.4577 25.3402 13.4577Z" fill="white"/>
<path d="M26.4154 12.3945C26.7122 12.3945 26.9528 12.1539 26.9528 11.857C26.9528 11.5602 26.7122 11.3196 26.4154 11.3196C26.1186 11.3196 25.8779 11.5602 25.8779 11.857C25.8779 12.1539 26.1186 12.3945 26.4154 12.3945Z" fill="white"/>
<path d="M27.3705 11.4511C27.6673 11.4511 27.9079 11.2105 27.9079 10.9137C27.9079 10.6168 27.6673 10.3762 27.3705 10.3762C27.0736 10.3762 26.833 10.6168 26.833 10.9137C26.833 11.2105 27.0736 11.4511 27.3705 11.4511Z" fill="white"/>
<path d="M28.4457 10.3762C28.7425 10.3762 28.9831 10.1356 28.9831 9.83873C28.9831 9.5419 28.7425 9.30127 28.4457 9.30127C28.1488 9.30127 27.9082 9.5419 27.9082 9.83873C27.9082 10.1356 28.1488 10.3762 28.4457 10.3762Z" fill="white"/>
<path d="M29.4007 9.34884C29.6976 9.34884 29.9382 9.10821 29.9382 8.81138C29.9382 8.51455 29.6976 8.27393 29.4007 8.27393C29.1039 8.27393 28.8633 8.51455 28.8633 8.81138C28.8633 9.10821 29.1039 9.34884 29.4007 9.34884Z" fill="white"/>
<path d="M30.8343 7.96358C31.1312 7.96358 31.3718 7.72296 31.3718 7.42613C31.3718 7.1293 31.1312 6.88867 30.8343 6.88867C30.5375 6.88867 30.2969 7.1293 30.2969 7.42613C30.2969 7.72296 30.5375 7.96358 30.8343 7.96358Z" fill="white"/>
<path d="M31.7894 6.96017C32.0862 6.96017 32.3269 6.71954 32.3269 6.42271C32.3269 6.12588 32.0862 5.88525 31.7894 5.88525C31.4926 5.88525 31.252 6.12588 31.252 6.42271C31.252 6.71954 31.4926 6.96017 31.7894 6.96017Z" fill="white"/>
<path d="M32.8646 5.94503C33.1614 5.94503 33.4021 5.7044 33.4021 5.40757C33.4021 5.11074 33.1614 4.87012 32.8646 4.87012C32.5678 4.87012 32.3271 5.11074 32.3271 5.40757C32.3271 5.7044 32.5678 5.94503 32.8646 5.94503Z" fill="white"/>
</svg>
