<svg width="249" height="42" viewBox="0 0 249 42" fill="none" xmlns="http://www.w3.org/2000/svg">
<path d="M9.41774 33.4043V9.27662H0V3.70215H25.7193V9.27662H16.2593V33.4043H9.41774Z" fill="#044273"/>
<path d="M32.1807 7.40426C30.956 7.40426 29.9424 7.06383 29.1823 6.34043C28.4221 5.61702 28.042 4.76596 28.042 3.70213C28.042 2.6383 28.4221 1.78723 29.1823 1.06383C29.9424 0.340426 30.956 0 32.1807 0C33.4055 0 34.3768 0.340426 35.137 0.978723C35.8971 1.65957 36.2772 2.51064 36.2772 3.53191C36.2772 4.6383 35.8971 5.53191 35.137 6.25532C34.419 7.02128 33.4055 7.40426 32.1807 7.40426ZM28.8866 10.5532H35.4748V33.4043H28.8866V10.5532Z" fill="#044273"/>
<path d="M52.5368 33.7446C50.0873 33.7446 47.9335 33.2339 46.0331 32.2552C44.1326 31.2339 42.6545 29.8722 41.5565 28.085C40.4584 26.2978 39.9517 24.2978 39.9517 21.9999C39.9517 19.702 40.5007 17.702 41.5565 15.9148C42.6545 14.1701 44.1326 12.7658 46.0331 11.7446C47.9335 10.7233 50.0873 10.2126 52.5368 10.2126C54.944 10.2126 57.0134 10.7233 58.7871 11.702C60.5609 12.7233 61.8701 14.1275 62.6303 15.9573L57.5624 18.7658C56.9289 17.702 56.211 16.8935 55.3241 16.4254C54.4372 15.9148 53.5081 15.702 52.4523 15.702C51.3543 15.702 50.3407 15.9573 49.4539 16.4254C48.567 16.9361 47.849 17.6169 47.3 18.5531C46.751 19.4892 46.4976 20.6382 46.4976 21.9573C46.4976 23.2765 46.751 24.4254 47.3 25.3616C47.849 26.2978 48.567 27.0212 49.4539 27.5318C50.3407 28.0424 51.3543 28.2552 52.4523 28.2552C53.5081 28.2552 54.4372 27.9999 55.3241 27.5318C56.211 27.0212 56.9289 26.2552 57.5624 25.1488L62.6303 27.9573C61.8279 29.7871 60.5609 31.1914 58.7871 32.2126C57.0134 33.2339 54.944 33.7446 52.5368 33.7446Z" fill="#044273"/>
<path d="M91.0099 33.4042H83.0281L75.9331 24.5105L72.7234 27.6169V33.4042H66.1353V1.91479H72.7234V19.702L82.3101 10.5531H90.1653L80.7053 20.2552L91.0099 33.4042Z" fill="#044273"/>
<path d="M113.731 15.7446C112.675 13.9999 111.281 12.6382 109.508 11.6595C107.734 10.6807 105.707 10.2126 103.511 10.2126C101.188 10.2126 99.1186 10.7233 97.3026 11.702C95.4444 12.7233 94.0085 14.085 92.995 15.8722C91.9814 17.6595 91.4746 19.6595 91.4746 21.9573C91.4746 24.2126 92.0236 26.2552 93.0794 27.9999C94.1352 29.7871 95.6556 31.1488 97.5983 32.1701C99.5409 33.1914 101.779 33.702 104.398 33.702C106.467 33.702 108.283 33.3616 109.846 32.7658C111.408 32.1275 112.717 31.2339 113.773 30.0424L110.268 26.2126C109.508 26.9361 108.663 27.4892 107.776 27.8722C106.847 28.2552 105.833 28.4254 104.651 28.4254C103.257 28.4254 102.117 28.1701 101.104 27.702C100.132 27.1914 99.3298 26.5105 98.7807 25.5743C98.4851 25.0637 98.2317 24.5105 98.105 23.8722H115.251C115.293 23.5743 115.293 23.2765 115.336 22.9786C115.378 22.6382 115.378 22.3829 115.378 22.1275C115.293 19.6169 114.744 17.4892 113.731 15.7446ZM97.9361 19.9999C98.0628 19.2765 98.274 18.6382 98.5696 18.085C99.0341 17.1914 99.7099 16.5105 100.554 15.9999C101.399 15.4892 102.413 15.2765 103.511 15.2765C104.609 15.2765 105.622 15.5318 106.467 15.9999C107.312 16.5105 107.987 17.1914 108.452 18.0424C108.79 18.6382 108.959 19.2765 109.043 19.9999H97.9361Z" fill="#044273"/>
<path d="M134.214 32.2979C133.58 32.766 132.778 33.149 131.849 33.3618C130.919 33.6171 129.948 33.7448 128.935 33.7448C126.274 33.7448 124.205 33.0639 122.684 31.7022C121.206 30.3405 120.446 28.2979 120.446 25.5745V16.1703H116.983V11.0639H120.488V5.53198H127.119V11.0639H132.735V16.1703H127.119V25.4043C127.119 26.383 127.372 27.1065 127.837 27.6596C128.343 28.2128 129.019 28.4682 129.821 28.4682C130.877 28.4682 131.806 28.1703 132.524 27.6171L134.214 32.2979Z" fill="#044273"/>
<path d="M152.711 33.9149C150.388 33.9149 148.276 33.5319 146.291 32.7659C144.307 32 142.617 30.9362 141.139 29.5319C139.661 28.1276 138.563 26.5106 137.761 24.6383C136.958 22.7659 136.578 20.7234 136.578 18.5106C136.578 16.2553 136.958 14.2128 137.761 12.383C138.563 10.5106 139.703 8.89361 141.139 7.53191C142.617 6.12765 144.307 5.06382 146.249 4.29786C148.192 3.5319 150.346 3.14893 152.669 3.14893C154.991 3.14893 157.145 3.5319 159.088 4.25531C161.03 5.02127 162.762 6.0851 164.198 7.4468C165.676 8.85105 166.774 10.4681 167.576 12.3404C168.379 14.2128 168.759 16.2553 168.759 18.5106C168.759 20.7234 168.379 22.7659 167.576 24.6383C166.774 26.5106 165.634 28.1702 164.198 29.5319C162.72 30.9362 161.03 32 159.088 32.7234C157.187 33.5319 155.076 33.9149 152.711 33.9149ZM152.711 28.0851C154.02 28.0851 155.245 27.8723 156.343 27.4042C157.441 26.9362 158.412 26.2553 159.257 25.4042C160.101 24.5532 160.735 23.5319 161.199 22.383C161.664 21.234 161.875 19.9574 161.875 18.5532C161.875 17.1489 161.664 15.8723 161.199 14.7234C160.735 13.5745 160.101 12.5532 159.257 11.7021C158.412 10.8511 157.441 10.1702 156.343 9.70212C155.245 9.23403 154.02 9.02127 152.711 9.02127C151.402 9.02127 150.177 9.23403 149.037 9.70212C147.896 10.1702 146.925 10.8511 146.123 11.7021C145.278 12.5532 144.644 13.5745 144.18 14.7234C143.715 15.8723 143.504 17.1489 143.504 18.5532C143.504 19.9574 143.715 21.234 144.18 22.383C144.644 23.5319 145.278 24.5532 146.123 25.4042C146.967 26.2553 147.939 26.9362 149.037 27.4042C150.177 27.8723 151.402 28.0851 152.711 28.0851Z" fill="#FFB217"/>
<path d="M198.406 33.4042H190.424L183.287 24.5105L180.119 27.6169V33.4042H173.531V1.91479H180.119V19.702L189.706 10.5531H197.561L188.144 20.2552L198.406 33.4042Z" fill="#FFB217"/>
<path d="M218.128 12.6807C216.228 11.0637 213.525 10.2126 210.062 10.2126C208.246 10.2126 206.515 10.4254 204.741 10.8935C203.009 11.3616 201.531 12.0424 200.264 12.9361L202.587 17.5743C203.432 16.9361 204.445 16.4254 205.586 16.0424C206.768 15.6595 207.951 15.4892 209.133 15.4892C210.907 15.4892 212.216 15.8722 213.061 16.6807C213.905 17.4892 214.328 18.5956 214.328 19.9999V20.0424H209.133C206.81 20.0424 204.91 20.3403 203.474 20.8935C202.038 21.4467 200.982 22.2552 200.349 23.2765C199.673 24.2978 199.377 25.4892 199.377 26.8084C199.377 28.1275 199.715 29.2765 200.391 30.3403C201.067 31.4041 202.038 32.2126 203.305 32.8084C204.572 33.4041 206.05 33.7446 207.824 33.7446C209.809 33.7446 211.456 33.3616 212.723 32.5531C213.567 32.0424 214.243 31.3616 214.75 30.5531V33.4041H220.916V20.3829C221 16.8935 220.029 14.3403 218.128 12.6807ZM212.554 28.5105C211.667 29.0212 210.653 29.2765 209.555 29.2765C208.457 29.2765 207.528 29.0212 206.895 28.5531C206.219 28.0424 205.923 27.3616 205.923 26.5531C205.923 25.7871 206.219 25.1488 206.768 24.6382C207.359 24.1275 208.415 23.8722 209.935 23.8722H214.454V26.2126C214.032 27.2339 213.441 27.9999 212.554 28.5105Z" fill="#FFB217"/>
<path d="M249 10.5532L238.78 34.8085C238.062 36.6809 237.217 38.1277 236.288 39.149C235.359 40.1702 234.303 40.8937 233.163 41.3192C232.023 41.7447 230.756 41.9575 229.404 41.9575C228.264 41.9575 227.124 41.7873 225.941 41.4043C224.801 41.0213 223.83 40.5107 223.069 39.8724L225.477 35.1064C225.983 35.5745 226.575 35.9575 227.25 36.2128C227.926 36.4681 228.559 36.5958 229.235 36.5958C230.122 36.5958 230.882 36.383 231.389 35.9575C231.938 35.5319 232.445 34.766 232.867 33.7873L232.952 33.5745L223.196 10.5532H229.953L236.33 26.0426L242.749 10.5532H249Z" fill="#FFB217"/>
</svg>
