<svg width="32" height="19" viewBox="0 0 32 19" fill="none" xmlns="http://www.w3.org/2000/svg">
<path d="M23.4108 6.83255C23.485 6.42285 23.2131 6.03065 22.8034 5.95639C22.3937 5.88214 22.0015 6.15405 21.9272 6.56375L23.4108 6.83255ZM21.051 15.63L21.7836 15.8076L21.7887 15.7861L21.7927 15.7644L21.051 15.63ZM20.0455 17.2189L20.4379 17.8626L20.4653 17.8459L20.4911 17.8268L20.0455 17.2189ZM17.6037 10.2824C17.6245 9.8666 17.3043 9.51262 16.8884 9.49193C16.4727 9.47116 16.1188 9.79142 16.098 10.2072L17.6037 10.2824ZM28.0715 2.22051L30.1386 3.51569L30.9391 2.23815L28.8719 0.942835L28.0715 2.22051ZM10.3079 15.682L6.17149 16.3789L6.422 17.8657L10.5584 17.1687L10.3079 15.682ZM5.40254 16.0279L4.36443 14.3249L3.07711 15.1096L4.11522 16.8126L5.40254 16.0279ZM4.36443 14.3249L1.61789 9.81924L0.330574 10.604L3.07711 15.1096L4.36443 14.3249ZM1.86919 8.78323L3.10009 8.0329L2.31536 6.74558L1.08447 7.49591L1.86919 8.78323ZM3.9354 8.0666L8.25791 11.2057L9.14379 9.98572L4.82131 6.8467L3.9354 8.0666ZM10.7638 11.3068L25.6936 2.20592L24.9089 0.918605L9.97911 10.0195L10.7638 11.3068ZM21.9272 6.56375L20.3092 15.4956L21.7927 15.7644L23.4108 6.83255L21.9272 6.56375ZM19.6532 16.5752L18.3729 17.3557L19.1576 18.643L20.4379 17.8626L19.6532 16.5752ZM17.2744 16.8782L17.6037 10.2824L16.098 10.2072L15.7686 16.803L17.2744 16.8782ZM18.3729 17.3557C17.9652 17.6042 17.4394 17.4138 17.2766 16.983L15.8663 17.516C16.357 18.8146 17.9292 19.3918 19.1576 18.643L18.3729 17.3557ZM20.3183 15.4522C20.1789 16.0268 20.1428 16.1347 20.0998 16.2026C20.0676 16.2532 20.0214 16.3019 19.5998 16.611L20.4911 17.8268C20.8238 17.583 21.1546 17.3551 21.3739 17.0086C21.5822 16.6793 21.6716 16.269 21.7836 15.8076L20.3183 15.4522ZM30.1308 4.79812L21.2714 10.1986L22.0562 11.4859L30.9155 6.08544L30.1308 4.79812ZM16.2766 13.2433L15.3831 13.788L16.1678 15.0753L17.0613 14.5306L16.2766 13.2433ZM20.7457 3.81993L11.9892 0.173687L11.4096 1.56553L20.1661 5.21182L20.7457 3.81993ZM9.94279 0.330404L8.90488 0.963093L9.6896 2.25041L10.7275 1.61772L9.94279 0.330404ZM8.95041 4.85208L14.9295 8.30735L15.6838 7.00216L9.70477 3.54673L8.95041 4.85208ZM8.90488 0.963093C7.43915 1.85657 7.46416 3.99316 8.95041 4.85208L9.70477 3.54673C9.20937 3.26043 9.20102 2.54824 9.6896 2.25041L8.90488 0.963093ZM11.9892 0.173687C11.3212 -0.10442 10.5606 -0.0461833 9.94279 0.330404L10.7275 1.61772C10.9334 1.49224 11.187 1.47275 11.4096 1.56553L11.9892 0.173687ZM8.25791 11.2057C8.9963 11.7419 9.98463 11.7818 10.7638 11.3068L9.97911 10.0195C9.71938 10.1778 9.38991 10.1645 9.14379 9.98572L8.25791 11.2057ZM3.10009 8.0329C3.35983 7.87457 3.68926 7.88785 3.9354 8.0666L4.82131 6.8467C4.08291 6.31047 3.09458 6.27059 2.31536 6.74558L3.10009 8.0329ZM6.17149 16.3789C5.86755 16.4302 5.56301 16.2911 5.40254 16.0279L4.11522 16.8126C4.59657 17.6022 5.51013 18.0193 6.422 17.8657L6.17149 16.3789ZM10.5584 17.1687C12.5443 16.834 14.4482 16.1236 16.1678 15.0753L15.3831 13.788C13.8272 14.7364 12.1047 15.3793 10.3079 15.682L10.5584 17.1687ZM15.7686 16.803C15.7595 16.9866 15.7644 17.2463 15.8663 17.516L17.2766 16.983C17.2792 16.99 17.277 16.9874 17.2752 16.9695C17.2732 16.9507 17.2722 16.9219 17.2744 16.8782L15.7686 16.803ZM30.1386 3.51569C30.6134 3.81317 30.6093 4.50644 30.1308 4.79812L30.9155 6.08544C32.3509 5.21047 32.3637 3.13065 30.9391 2.23815L30.1386 3.51569ZM1.61789 9.81924C1.40119 9.46375 1.51371 8.99992 1.86919 8.78323L1.08447 7.49591C0.0180169 8.14599 -0.319512 9.53751 0.330574 10.604L1.61789 9.81924ZM28.8719 0.942835C27.6621 0.184935 26.128 0.175474 24.9089 0.918605L25.6936 2.20592C26.4251 1.76004 27.3456 1.76569 28.0715 2.22051L28.8719 0.942835Z" fill="#009CFC"/>
</svg>
