<svg width="24" height="21" viewBox="0 0 24 21" fill="none" xmlns="http://www.w3.org/2000/svg">
<path d="M15.941 9.43079L18.3041 18.5393C18.3492 18.7131 18.3025 18.8981 18.1802 19.0297L17.3321 19.9424C17.0681 20.2264 16.5975 20.1369 16.4563 19.7758L12.8575 10.5692C12.7517 10.2986 12.8855 9.99298 13.1561 9.88721L15.24 9.07262C15.5336 8.95784 15.8619 9.12562 15.941 9.43079Z" fill="#B3B3B3" stroke="#B3B3B3" stroke-width="0.576811"/>
<path d="M13.4966 6.11085L5.46132 1.21367C5.30797 1.12022 5.11733 1.11139 4.95604 1.19035L3.83699 1.73812C3.48875 1.90864 3.43826 2.38504 3.74307 2.62467L11.5148 8.7332C11.7432 8.91274 12.0745 8.87304 12.254 8.64462L13.6367 6.88551C13.8315 6.63765 13.7658 6.27491 13.4966 6.11085Z" fill="#B3B3B3" stroke="#B3B3B3" stroke-width="0.576811"/>
<path d="M6.75134 13.4501L8.76162 18.379C8.79826 18.4688 8.78784 18.5715 8.73397 18.6522L7.67471 20.2385C7.54848 20.4272 7.26447 20.4064 7.16743 20.201L4.74054 15.0663C4.6907 14.9609 4.62084 14.8661 4.53407 14.7882L0.389267 11.0731C0.22214 10.9232 0.280381 10.6483 0.493602 10.5778L2.29341 9.98231C2.38763 9.95117 2.4916 9.97067 2.56887 10.0329L6.66404 13.3326C6.70255 13.3636 6.73266 13.4043 6.75134 13.4501Z" fill="#B3B3B3" stroke="#B3B3B3" stroke-width="0.576811"/>
<path d="M23.3342 1.05824C23.9586 1.89927 23.7829 3.08783 22.9419 3.71223L7.3593 15.2814L5.09762 12.2351L20.6803 0.665939C21.5213 0.041526 22.7098 0.217213 23.3342 1.05824Z" fill="#B3B3B3" stroke="#B3B3B3" stroke-width="0.576811"/>
</svg>
