<svg width="25" height="20" viewBox="0 0 25 20" fill="none" xmlns="http://www.w3.org/2000/svg">
<path d="M13.2828 14.4621L5.53969 19.6238C5.39192 19.7223 5.20389 19.7387 5.04135 19.6671L3.91361 19.1708C3.56266 19.0163 3.49364 18.5476 3.7852 18.2986L11.2192 11.9506C11.4377 11.764 11.7666 11.7899 11.9532 12.0084L13.39 13.6911C13.5925 13.9282 13.5422 14.2892 13.2828 14.4621Z" fill="#B2B2B2" stroke="#B3B3B3" stroke-width="0.576811"/>
<path d="M15.5917 11.102L17.5608 2.0069C17.5984 1.83333 17.5448 1.65236 17.4187 1.52729L16.5441 0.659487C16.2718 0.389454 15.8104 0.496784 15.6854 0.859267L12.499 10.1009C12.4054 10.3726 12.5499 10.6692 12.8215 10.7628L14.9134 11.484C15.2081 11.5857 15.5257 11.4067 15.5917 11.102Z" fill="#B2B2B2" stroke="#B3B3B3" stroke-width="0.576811"/>
<path d="M6.54752 7.18082L2.59477 10.6574C2.52273 10.7208 2.42342 10.7443 2.33058 10.7202L0.50504 10.245C0.287808 10.1883 0.215206 9.91621 0.37555 9.75896L4.38553 5.8264C4.46785 5.74566 4.53375 5.64964 4.57837 5.54332L6.70492 0.466241C6.79081 0.261474 7.06649 0.22674 7.20147 0.403086L8.34152 1.8914C8.40117 1.96932 8.41667 2.07277 8.38356 2.16515L6.62907 7.06112C6.61255 7.10716 6.58425 7.14851 6.54752 7.18082Z" fill="#B2B2B2" stroke="#B3B3B3" stroke-width="0.576811"/>
<path d="M23.5026 18.6542C22.9194 19.5102 21.752 19.7316 20.8959 19.1484L5.03395 8.34261L7.1464 5.24172L23.0084 16.0475C23.8645 16.6307 24.0858 17.7981 23.5026 18.6542Z" fill="#B2B2B2" stroke="#B3B3B3" stroke-width="0.576811"/>
</svg>
