<svg width="31" height="31" viewBox="0 0 31 31" fill="none" xmlns="http://www.w3.org/2000/svg">
<g clip-path="url(#clip0_1_1264)">
<path d="M29.7082 5.16678V12.9168M29.7082 12.9168H21.9582M29.7082 12.9168L23.7148 7.28512C22.3266 5.89621 20.6092 4.88159 18.7228 4.33595C16.8364 3.79031 14.8425 3.73142 12.9272 4.16478C11.0119 4.59815 9.23758 5.50964 7.76982 6.8142C6.30205 8.11876 5.18868 9.77388 4.53359 11.6251M1.2915 25.8335V18.0835M1.2915 18.0835H9.0415M1.2915 18.0835L7.28484 23.7151C8.67305 25.104 10.3905 26.1186 12.2769 26.6643C14.1633 27.2099 16.1572 27.2688 18.0725 26.8355C19.9878 26.4021 21.7621 25.4906 23.2299 24.186C24.6976 22.8815 25.811 21.2264 26.4661 19.3751" stroke="#009CFC" stroke-opacity="0.71" stroke-width="4" stroke-linecap="round" stroke-linejoin="round"/>
</g>
<defs>
<clipPath id="clip0_1_1264">
<rect width="31" height="31" fill="white"/>
</clipPath>
</defs>
</svg>
