<svg width="36" height="36" viewBox="0 0 36 36" fill="none" xmlns="http://www.w3.org/2000/svg">
<path d="M0.251462 20.9827C0.659189 23.4167 1.54212 25.6545 2.78534 27.6153C7.42973 26.3224 11.5132 23.8743 12.9657 18.4182C14.563 12.4129 12.7398 6.12005 8.37815 2.78526C2.43941 6.54553 -0.985641 13.6167 0.251462 20.9827ZM35.7483 15.0192C37.3955 24.8201 30.7854 34.102 20.9817 35.7479C19.3737 36.0202 17.736 36.0722 16.1139 35.9025C10.9998 35.3676 6.39095 32.6496 3.42591 28.5638L32.5669 20.209C32.9851 20.0878 32.877 19.6862 32.5312 19.71L20.3139 20.5632C22.0347 18.9018 23.3444 16.8636 23.1865 14.0458C22.8642 9.48098 18.2186 5.02673 9.57846 2.09596C11.2802 1.19248 13.1166 0.569669 15.0169 0.251558C16.6665 -0.0241867 18.3018 -0.0693627 19.8849 0.0969933C27.7274 0.918119 34.3781 6.8629 35.7483 15.0192Z" fill="#C70A0C"/>
</svg>
