<svg width="36" height="24" viewBox="0 0 36 24" fill="none" xmlns="http://www.w3.org/2000/svg">
<g clip-path="url(#clip0_34_347)">
<path d="M0 0H36V24H0V0Z" fill="white"/>
<path d="M0 0H36V1.84561H0V0ZM0 3.69123H36V5.53684H0V3.69123ZM0 7.38246H36V9.22807H0V7.38246ZM0 11.0737H36V12.9193H0V11.0737ZM0 14.7719H36V16.6175H0V14.7719ZM0 18.4632H36V20.3088H0V18.4632ZM0 22.1544H36V24H0V22.1544Z" fill="#D80027"/>
<path d="M0 0H18V12.9193H0V0Z" fill="#2E52B2"/>
<path d="M3.35417 9.74743L3.07347 8.84919L2.76469 9.74743H1.83838L2.58926 10.2878L2.30855 11.186L3.07347 10.6316L3.81733 11.186L3.52961 10.2878L4.29452 9.74743H3.35417ZM7.30505 9.74743L7.01733 8.84919L6.72259 9.74743H5.79627L6.54715 10.2878L6.26645 11.186L7.01733 10.6316L7.77522 11.186L7.49452 10.2878L8.2454 9.74743H7.30505ZM11.27 9.74743L10.9682 8.84919L10.6875 9.74743H9.74013L10.5121 10.2878L10.2173 11.186L10.9682 10.6316L11.7401 11.186L11.4454 10.2878L12.1963 9.74743H11.27ZM15.2138 9.74743L14.9331 8.84919L14.6384 9.74743H13.705L14.4629 10.2878L14.1822 11.186L14.9331 10.6316L15.691 11.186L15.3893 10.2878L16.1612 9.74743H15.2138ZM7.01733 5.28428L6.72259 6.18252H5.79627L6.54715 6.73691L6.26645 7.62112L7.01733 7.07375L7.77522 7.62112L7.49452 6.73691L8.2454 6.18252H7.30505L7.01733 5.28428ZM3.07347 5.28428L2.76469 6.18252H1.83838L2.58926 6.73691L2.30855 7.62112L3.07347 7.07375L3.81733 7.62112L3.52961 6.73691L4.29452 6.18252H3.35417L3.07347 5.28428ZM10.9682 5.28428L10.6875 6.18252H9.74013L10.5121 6.73691L10.2173 7.62112L10.9682 7.07375L11.7401 7.62112L11.4454 6.73691L12.1963 6.18252H11.27L10.9682 5.28428ZM14.9331 5.28428L14.6384 6.18252H13.705L14.4629 6.73691L14.1822 7.62112L14.9331 7.07375L15.691 7.62112L15.3893 6.73691L16.1612 6.18252H15.2138L14.9331 5.28428ZM3.07347 1.7334L2.76469 2.61761H1.83838L2.58926 3.17199L2.30855 4.06322L3.07347 3.50884L3.81733 4.06322L3.52961 3.17199L4.29452 2.61761H3.35417L3.07347 1.7334ZM7.01733 1.7334L6.72259 2.61761H5.79627L6.54715 3.17199L6.26645 4.06322L7.01733 3.50884L7.77522 4.06322L7.49452 3.17199L8.2454 2.61761H7.30505L7.01733 1.7334ZM10.9682 1.7334L10.6875 2.61761H9.74013L10.5121 3.17199L10.2173 4.06322L10.9682 3.50884L11.7401 4.06322L11.4454 3.17199L12.1963 2.61761H11.27L10.9682 1.7334ZM14.9331 1.7334L14.6384 2.61761H13.705L14.4629 3.17199L14.1822 4.06322L14.9331 3.50884L15.691 4.06322L15.3893 3.17199L16.1612 2.61761H15.2138L14.9331 1.7334Z" fill="white"/>
</g>
<defs>
<clipPath id="clip0_34_347">
<rect width="36" height="24" fill="white"/>
</clipPath>
</defs>
</svg>
